<svg width="101" height="48" fill="none" xmlns="http://www.w3.org/2000/svg"><path d="M.79 28.79h3V43.5h-3V28.79Z" fill="#696871"/><path fill-rule="evenodd" clip-rule="evenodd" d="M8.82 33.52a5.34 5.34 0 0 0-3.29 4.94 5.28 5.28 0 0 0 5.34 5.33 5.34 5.34 0 1 0-2.05-10.27Zm2.011 2.68a2.32 2.32 0 0 1 2.359 2.26 2.26 2.26 0 0 1-2.32 2.38 2.32 2.32 0 0 1-.039-4.64ZM28.27 43v-9.58l-2.95.03v1a3.59 3.59 0 0 0-2.94-1.31 5.12 5.12 0 1 0 0 10.24 3.56 3.56 0 0 0 2.94-1.31V43A2 2 0 0 1 23 45.16a2.3 2.3 0 0 1-2.25-1.27l-2.58 1.49a5.15 5.15 0 0 0 4.77 2.44c2.68 0 5.33-1.43 5.33-4.82Zm-4.385-7.064a2.44 2.44 0 0 1 1.435 2.324 2.28 2.28 0 0 1-2.44 2.34 2.44 2.44 0 1 1 1.005-4.664ZM33.29 33.52A5.34 5.34 0 0 0 30 38.46a5.28 5.28 0 0 0 5.34 5.33 5.34 5.34 0 1 0-2.05-10.27ZM35.3 36.2a2.32 2.32 0 0 1 2.359 2.26h-.02a2.26 2.26 0 0 1-2.3 2.38 2.32 2.32 0 0 1-.039-4.64ZM43.89 28.9a1.82 1.82 0 0 0-1.82 1.82 1.83 1.83 0 0 0 1.82 1.82 1.82 1.82 0 0 0 0-3.64Zm1.49 4.52h-3V43.5h3V33.42ZM57.164 42.126a5.06 5.06 0 0 0 1.296-3.666 5.06 5.06 0 0 0-4.81-5.32 3.83 3.83 0 0 0-3 1.23v-.95h-3v14.14h3v-5a3.83 3.83 0 0 0 3 1.23 5.06 5.06 0 0 0 3.514-1.664Zm-4.123-6.005a2.4 2.4 0 0 1 2.419 2.339h-.02A2.3 2.3 0 0 1 53 40.92a2.4 2.4 0 0 1 .04-4.8Z" fill="#696871"/><path d="M67.8 40.48c0 2.32-2 3.31-4.2 3.31a4.42 4.42 0 0 1-4.33-2.4l2.62-1.49a1.66 1.66 0 0 0 1.71 1.19c.73 0 1.09-.23 1.09-.63 0-1.11-5-.52-5-4 0-2.2 1.86-3.31 4-3.31a4.43 4.43 0 0 1 3.94 2.16L65 36.69a1.49 1.49 0 0 0-1.36-.89c-.52 0-.84.2-.84.57.04 1.15 5 .38 5 4.11ZM78.84 33.42V43.5h-3v-.94a3.45 3.45 0 0 1-2.88 1.23c-2 0-3.77-1.45-3.77-4.18v-6.19h3v5.75A1.66 1.66 0 0 0 74 41c1.1 0 1.87-.64 1.87-2.07v-5.51h2.97ZM96.18 37.32v6.18h-3v-5.92c0-1-.49-1.66-1.45-1.66s-1.58.71-1.58 1.9v5.68h-3v-5.92c0-1-.48-1.66-1.45-1.66s-1.57.71-1.57 1.9v5.68h-3V33.42h3v.93a3.1 3.1 0 0 1 2.7-1.21 3 3 0 0 1 2.64 1.33 3.32 3.32 0 0 1 2.92-1.33c2.28 0 3.79 1.66 3.79 4.18ZM98.74 33.36a2.24 2.24 0 1 0 0-4.48 2.24 2.24 0 0 0 0 4.48ZM34.74 21.16c5.793 0 10.49-4.697 10.49-10.49S40.533.18 34.74.18 24.25 4.877 24.25 10.67s4.697 10.49 10.49 10.49ZM58.19 21.16c5.794 0 10.49-4.697 10.49-10.49S63.983.18 58.19.18 47.7 4.877 47.7 10.67s4.697 10.49 10.49 10.49ZM.81.18h20.97v20.97H.81z" fill="#696871"/></svg>